<svg width="26" height="26" viewBox="0 0 26 26" fill="none" xmlns="http://www.w3.org/2000/svg">
<path d="M19.4131 10.5052H17.8506C17.85 9.88379 17.6028 9.28801 17.1634 8.84861C16.724 8.4092 16.1282 8.16207 15.5068 8.16145V6.59895C16.5425 6.60019 17.5353 7.01214 18.2676 7.74444C18.9999 8.47673 19.4118 9.46958 19.4131 10.5052Z" fill="black"/>
<path d="M22.5381 10.5052H20.9756C20.9739 9.05531 20.3972 7.66527 19.372 6.64004C18.3468 5.61481 16.9567 5.03811 15.5068 5.03645V3.47395C17.371 3.47602 19.1582 4.21748 20.4764 5.53564C21.7946 6.85381 22.536 8.64103 22.5381 10.5052Z" fill="black"/>
<path d="M20.9755 23.0052H20.8427C5.49115 22.1224 3.31146 9.16927 3.00677 5.21614C2.95915 4.59641 3.15965 3.98315 3.56416 3.51124C3.96868 3.03933 4.54408 2.74743 5.1638 2.69974C5.22578 2.69505 5.28802 2.6927 5.35052 2.6927H9.46771C9.78065 2.6924 10.0865 2.78607 10.3455 2.96158C10.6046 3.13709 10.805 3.38635 10.9208 3.67708L12.1083 6.59895C12.2227 6.88297 12.251 7.19433 12.1899 7.49434C12.1288 7.79435 11.9809 8.06979 11.7646 8.28645L10.1005 9.96614C10.3594 11.4437 11.0664 12.806 12.1258 13.8681C13.1851 14.9302 14.5455 15.6409 16.0224 15.9036L17.7177 14.224C17.9376 14.01 18.2157 13.8656 18.5171 13.8086C18.8186 13.7516 19.1302 13.7847 19.413 13.9036L22.3583 15.0833C22.6447 15.2028 22.889 15.4048 23.0601 15.6635C23.2312 15.9223 23.3215 16.2262 23.3193 16.5365V20.6615C23.3193 21.2831 23.0723 21.8792 22.6328 22.3187C22.1933 22.7583 21.5971 23.0052 20.9755 23.0052ZM5.35052 4.2552C5.24793 4.2549 5.14628 4.2748 5.05137 4.31378C4.95647 4.35275 4.87017 4.41004 4.79741 4.48237C4.72464 4.5547 4.66684 4.64065 4.62729 4.73532C4.58775 4.82998 4.56724 4.93151 4.56693 5.03411C4.56693 5.05599 4.56771 5.0776 4.56927 5.09895C4.92865 9.72395 7.23334 20.6615 20.9286 21.4427C21.1354 21.4551 21.3387 21.3849 21.4937 21.2474C21.6487 21.11 21.7427 20.9167 21.7552 20.7099L21.7568 20.6615V16.5365L18.8115 15.3568L16.5693 17.5833L16.1943 17.5365C9.3974 16.6849 8.47552 9.88802 8.47552 9.8177L8.42865 9.4427L10.6474 7.20052L9.47552 4.2552H5.35052Z" fill="#F3C628"/>
</svg>
