<svg width="31" height="30" viewBox="0 0 31 30" fill="none" xmlns="http://www.w3.org/2000/svg">
<path d="M11.7715 26.6667C12.807 26.6667 13.6465 25.8272 13.6465 24.7917C13.6465 23.7561 12.807 22.9167 11.7715 22.9167C10.736 22.9167 9.89648 23.7561 9.89648 24.7917C9.89648 25.8272 10.736 26.6667 11.7715 26.6667Z" fill="#F3C628"/>
<path d="M23.1631 26.6667C24.1986 26.6667 25.0381 25.8272 25.0381 24.7917C25.0381 23.7561 24.1986 22.9167 23.1631 22.9167C22.1276 22.9167 21.2881 23.7561 21.2881 24.7917C21.2881 25.8272 22.1276 26.6667 23.1631 26.6667Z" fill="#F3C628"/>
<path d="M19.4714 5.83333C19.4334 5.55716 19.4139 5.27877 19.413 5C19.4139 4.72124 19.4334 4.44284 19.4714 4.16667H10.238L10.7797 5.83333H19.4714Z" fill="#F3C628"/>
<path d="M25.6631 11.25H25.3131L24.2715 15.8333H11.7715L7.96312 3.775C7.92192 3.64705 7.85039 3.53096 7.75462 3.43664C7.65885 3.34232 7.54168 3.27257 7.41312 3.23334L3.99645 2.18334C3.89139 2.15105 3.78101 2.13978 3.67159 2.15016C3.56218 2.16053 3.45588 2.19236 3.35876 2.24382C3.16263 2.34775 3.01582 2.52533 2.95062 2.7375C2.88542 2.94968 2.90717 3.17906 3.0111 3.37519C3.11503 3.57132 3.29261 3.71814 3.50478 3.78334L6.49645 4.7L10.3215 16.7833L8.95478 17.9L8.84645 18.0083C8.5084 18.3979 8.31678 18.8932 8.30462 19.4088C8.29245 19.9245 8.46048 20.4282 8.77978 20.8333C9.00692 21.1096 9.29554 21.3288 9.62257 21.4735C9.94959 21.6182 10.3059 21.6843 10.6631 21.6667H24.5715C24.7925 21.6667 25.0044 21.5789 25.1607 21.4226C25.317 21.2663 25.4048 21.0543 25.4048 20.8333C25.4048 20.6123 25.317 20.4004 25.1607 20.2441C25.0044 20.0878 24.7925 20 24.5715 20H10.5298C10.4338 19.9967 10.3403 19.9688 10.2583 19.9188C10.1763 19.8688 10.1086 19.7986 10.0617 19.7148C10.0148 19.631 9.99026 19.5366 9.99051 19.4405C9.99076 19.3445 10.0158 19.2502 10.0631 19.1667L12.0715 17.5H24.9381C25.1308 17.5047 25.3191 17.4425 25.471 17.324C25.6229 17.2055 25.7291 17.038 25.7715 16.85L27.0798 11.0917C26.6151 11.1982 26.1398 11.2514 25.6631 11.25Z" fill="#F3C628"/>
<path d="M25.6631 9.16667C27.9643 9.16667 29.8298 7.30119 29.8298 5C29.8298 2.69881 27.9643 0.833332 25.6631 0.833332C23.3619 0.833332 21.4965 2.69881 21.4965 5C21.4965 7.30119 23.3619 9.16667 25.6631 9.16667Z" fill="black"/>
</svg>
