<svg width="25" height="26" viewBox="0 0 25 26" fill="none" xmlns="http://www.w3.org/2000/svg">
<path d="M12.4895 2.83334C6.7395 2.83334 2.08325 7.5 2.08325 13.25C2.08325 19 6.7395 23.6667 12.4895 23.6667C18.2499 23.6667 22.9166 19 22.9166 13.25C22.9166 7.5 18.2499 2.83334 12.4895 2.83334ZM12.4999 21.5833C7.89575 21.5833 4.16659 17.8542 4.16659 13.25C4.16659 8.64584 7.89575 4.91667 12.4999 4.91667C17.1041 4.91667 20.8333 8.64584 20.8333 13.25C20.8333 17.8542 17.1041 21.5833 12.4999 21.5833Z" fill="#F3C628"/>
<path d="M13.0208 8.04166H11.4583V14.2917L16.927 17.5729L17.7083 16.2917L13.0208 13.5104V8.04166Z" fill="black"/>
</svg>
