<svg width="25" height="25" viewBox="0 0 25 25" fill="none" xmlns="http://www.w3.org/2000/svg">
<path d="M23.7694 22.771L17.8194 16.5827C19.3493 14.7641 20.1875 12.4759 20.1875 10.0937C20.1875 4.52814 15.6593 0 10.0937 0C4.52814 0 0 4.52814 0 10.0937C0 15.6593 4.52814 20.1875 10.0937 20.1875C12.1831 20.1875 14.1742 19.5573 15.8766 18.361L21.8718 24.5963C22.1224 24.8565 22.4594 25 22.8206 25C23.1625 25 23.4868 24.8697 23.733 24.6327C24.2561 24.1293 24.2728 23.2946 23.7694 22.771ZM10.0937 2.63315C14.2076 2.63315 17.5543 5.97988 17.5543 10.0937C17.5543 14.2076 14.2076 17.5543 10.0937 17.5543C5.97988 17.5543 2.63315 14.2076 2.63315 10.0937C2.63315 5.97988 5.97988 2.63315 10.0937 2.63315Z" fill="#F3C628"/>
</svg>
