<svg width="26" height="26" viewBox="0 0 26 26" fill="none" xmlns="http://www.w3.org/2000/svg">
<path d="M13.1631 6.75C12.3905 6.75 11.6353 6.9791 10.9929 7.40832C10.3505 7.83755 9.84984 8.44762 9.55418 9.16139C9.25853 9.87517 9.18117 10.6606 9.3319 11.4183C9.48262 12.1761 9.85465 12.8721 10.401 13.4184C10.9473 13.9647 11.6433 14.3367 12.401 14.4874C13.1588 14.6382 13.9442 14.5608 14.6579 14.2652C15.3717 13.9695 15.9818 13.4688 16.411 12.8264C16.8402 12.1841 17.0693 11.4288 17.0693 10.6563C17.0693 9.62025 16.6578 8.62668 15.9252 7.89411C15.1927 7.16155 14.1991 6.75 13.1631 6.75Z" fill="black"/>
<path d="M13.1631 2.0625C10.9999 2.0625 8.8852 2.70397 7.08654 3.9058C5.28788 5.10763 3.88599 6.81583 3.05816 8.8144C2.23032 10.813 2.01373 13.0121 2.43575 15.1338C2.85778 17.2555 3.89947 19.2043 5.42911 20.734C6.95875 22.2636 8.90762 23.3053 11.0293 23.7273C13.151 24.1494 15.3501 23.9328 17.3487 23.1049C19.3473 22.2771 21.0555 20.8752 22.2573 19.0765C23.4591 17.2779 24.1006 15.1632 24.1006 13C24.0973 10.1002 22.9439 7.32014 20.8934 5.26967C18.843 3.21921 16.0629 2.06581 13.1631 2.0625ZM19.4068 19.9734C19.3913 18.9487 18.9738 17.9711 18.2443 17.2512C17.5148 16.5314 16.5317 16.1269 15.5068 16.125H10.8193C9.79448 16.1269 8.8114 16.5314 8.08191 17.2512C7.35242 17.9711 6.93491 18.9487 6.91934 19.9734C5.50259 18.7084 4.5035 17.0429 4.05437 15.1974C3.60523 13.3519 3.72723 11.4135 4.40421 9.63895C5.0812 7.86436 6.28123 6.33724 7.84541 5.25982C9.40959 4.1824 11.2641 3.60549 13.1635 3.60549C15.0628 3.60549 16.9174 4.1824 18.4816 5.25982C20.0457 6.33724 21.2458 7.86436 21.9227 9.63895C22.5997 11.4135 22.7217 13.3519 22.2726 15.1974C21.8235 17.0429 20.8244 18.7084 19.4076 19.9734H19.4068Z" fill="#F3C628"/>
</svg>
